<mxfile host="app.diagrams.net" modified="2023-04-26T03:05:07.450Z" agent="Mozilla/5.0 (Macintosh; Intel Mac OS X 10_15_7) AppleWebKit/605.1.15 (KHTML, like Gecko) Version/16.4 Safari/605.1.15" version="21.1.7" etag="kP2bU_JQC8c41BWaqPEe" type="github">
  <diagram name="Page-1" id="NQaXieNRUr2K35PzJBa7">
    <mxGraphModel>
      <root>
        <mxCell id="0" />
        <mxCell id="1" parent="0" />
      </root>
    </mxGraphModel>
  </diagram>
</mxfile>
